<?xml version="1.0" encoding="UTF-8" standalone="no"?>
<svg
   xmlns:dc="http://purl.org/dc/elements/1.1/"
   xmlns:cc="http://creativecommons.org/ns#"
   xmlns:rdf="http://www.w3.org/1999/02/22-rdf-syntax-ns#"
   xmlns:svg="http://www.w3.org/2000/svg"
   xmlns="http://www.w3.org/2000/svg"
   viewBox="0 0 493.33334 115.10667"
   height="115.10667"
   width="493.33334"
   xml:space="preserve"
   id="svg2"
   version="1.1"><metadata
     id="metadata8"><rdf:RDF><cc:Work
         rdf:about=""><dc:format>image/svg+xml</dc:format><dc:type
           rdf:resource="http://purl.org/dc/dcmitype/StillImage" /></cc:Work></rdf:RDF></metadata><defs
     id="defs6" /><g
     transform="matrix(1.3333333,0,0,-1.3333333,0,115.10667)"
     id="g10"><g
       transform="scale(0.1)"
       id="g12"><path
         id="path14"
         style="fill:#e52824;fill-opacity:1;fill-rule:nonzero;stroke:none"
         d="M 921.297,218.711 V 788.949 H 1257.83 V 717.137 H 991.109 V 541.879 H 1230.48 V 470.066 H 991.109 V 290.523 H 1277.49 V 218.711 H 921.297" /><path
         id="path16"
         style="fill:#e52824;fill-opacity:1;fill-rule:nonzero;stroke:none"
         d="M 1631.97,218.711 1515.7,370.887 1400.28,218.711 h -82.07 l 158.16,203.477 -166.71,209.453 h 91.47 l 114.57,-157.309 115.42,157.309 h 90.61 L 1563.57,422.188 1714.04,218.711 h -82.07" /><path
         id="path18"
         style="fill:#e52824;fill-opacity:1;fill-rule:nonzero;stroke:none"
         d="m 2118.48,425.602 c 0,91.484 -58.77,146.808 -164.57,141.824 -50.38,-2.375 -129.3,-39.184 -121.82,-170.641 2.4,-42.16 45.95,-123.222 142.41,-123.222 82.93,0 143.98,48.085 143.98,152.039 z M 1826.87,281.125 V 0 h -70.65 v 420.648 c 0,106.86 82.29,221.254 210,221.254 128.75,0 226.56,-82.074 226.56,-216.3 0,-131.739 -98.35,-221.5 -210.54,-221.5 -56.43,0 -129.13,23.507 -155.37,77.023" /><path
         id="path20"
         style="fill:#e52824;fill-opacity:1;fill-rule:nonzero;stroke:none"
         d="m 2251.73,218.711 v 412.93 h 69.07 v -43.914 c 33.84,38.468 86.42,53.324 142.83,53.324 V 565.82 c -7.68,0.864 -91.36,11.223 -142.83,-96.707 V 218.711 h -69.07" /><path
         id="path22"
         style="fill:#e52824;fill-opacity:1;fill-rule:nonzero;stroke:none"
         d="m 2681.63,572.41 c -67.21,0 -117.88,-57.89 -121.3,-120.301 h 253.91 c -0.85,60.7 -44.51,120.301 -132.61,120.301 z M 2484.24,425.602 c 0,119.691 85.49,216.3 203.47,216.3 146.37,0 201.23,-97.461 201.23,-221.425 v -33.344 h -327.75 c 5.12,-77.797 74.84,-118.914 139.35,-117.129 47.86,1.328 80.36,16.016 113.7,50.219 l 45.31,-47.649 c -41.88,-41.039 -97.46,-68.472 -164.15,-68.472 -123.1,0 -211.16,92.41 -211.16,221.5" /><path
         id="path24"
         style="fill:#e52824;fill-opacity:1;fill-rule:nonzero;stroke:none"
         d="m 2922.6,276.766 c 0,0.004 51.18,45.32 51.29,45.418 -0.96,-0.848 25.87,-27.368 28.66,-29.684 11.53,-9.555 24.63,-16.648 39.15,-20.477 44.5,-11.746 124.84,-7.933 130.42,52.329 3.19,34.39 -22.71,53.156 -51.51,63.906 -37.94,14.16 -78.72,19.344 -115.94,35.715 -42.19,18.558 -69.25,51.656 -69.25,99.097 0,124.25 176.38,144.875 256.52,86.778 4.19,-3.039 43.31,-38.446 41.62,-39.75 0,-0.004 -51.83,-40.075 -51.83,-40.075 -24.78,29.922 -50.19,45.645 -104.04,46.485 -26.66,0.414 -64.49,-11.207 -72.26,-40.711 -10.77,-40.926 36.09,-56.442 66.39,-64.281 40.87,-10.582 84.88,-16.473 121.31,-39.297 48.69,-30.504 61.42,-96.574 42.23,-148.067 -20.74,-55.687 -80.98,-77.539 -136.07,-80.093 -64.84,-3.008 -120.52,17.777 -167.26,63.207 -0.82,0.797 -9.44,9.5 -9.43,9.5" /><path
         id="path26"
         style="fill:#e52824;fill-opacity:1;fill-rule:nonzero;stroke:none"
         d="m 3282.06,276.766 c 0,0.004 51.19,45.32 51.29,45.418 -0.95,-0.848 25.87,-27.368 28.67,-29.684 11.53,-9.555 24.63,-16.648 39.14,-20.477 44.5,-11.746 124.85,-7.933 130.43,52.329 3.19,34.39 -22.72,53.156 -51.51,63.906 -37.94,14.16 -78.72,19.344 -115.94,35.715 -42.2,18.558 -69.26,51.656 -69.26,99.097 0.01,124.25 176.39,144.875 256.53,86.778 4.19,-3.039 43.3,-38.446 41.61,-39.75 0,-0.004 -51.82,-40.075 -51.82,-40.075 -24.79,29.922 -50.2,45.645 -104.04,46.485 -26.67,0.414 -64.5,-11.207 -72.26,-40.711 -10.77,-40.926 36.08,-56.442 66.38,-64.281 40.88,-10.582 84.89,-16.473 121.32,-39.297 48.68,-30.504 61.41,-96.574 42.23,-148.067 -20.75,-55.687 -80.99,-77.539 -136.07,-80.093 -64.84,-3.008 -120.52,17.777 -167.27,63.207 -0.82,0.797 -9.43,9.5 -9.43,9.5" /><path
         id="path28"
         style="fill:#e52824;fill-opacity:1;fill-rule:nonzero;stroke:none"
         d="m 3615.2,632.43 v 44.23 h -15.84 v 8.078 h 40.86 v -8.078 h -15.85 v -44.23 h -9.17" /><path
         id="path30"
         style="fill:#e52824;fill-opacity:1;fill-rule:nonzero;stroke:none"
         d="m 3690.83,632.43 v 40.394 l -16,-40.394 h -3.93 l -16.07,40.394 V 632.43 h -9.18 v 52.308 h 12.94 l 14.27,-35.918 14.2,35.918 H 3700 V 632.43 h -9.17" /><path
         id="path32"
         style="fill:#f68c14;fill-opacity:1;fill-rule:nonzero;stroke:none"
         d="M 256.484,707.723 153.031,425.602 H 369.328 Z M 448.84,218.711 398.398,354.648 H 123.109 L 72.668,218.711 H 0 l 221.43,570.234 h 79.508 L 521.512,218.711 H 448.84" /><path
         id="path34"
         style="fill:#f68c14;fill-opacity:1;fill-rule:nonzero;stroke:none"
         d="M 564.066,218.711 V 788.945 H 634.91 V 218.711 h -70.844" /><path
         id="path36"
         style="fill:#f68c14;fill-opacity:1;fill-rule:nonzero;stroke:none"
         d="m 742.52,218.711 v 404.281 h 70.843 V 218.711 H 742.52" /><path
         id="path38"
         style="fill:#f68c14;fill-opacity:1;fill-rule:nonzero;stroke:none"
         d="m 882.758,754.723 c 0.043,1.215 0.183,2.402 0.183,3.625 0,1.222 -0.14,2.41 -0.183,3.621 -54.746,2.25 -98.59,46.316 -100.465,101.16 -1.457,0.059 -2.883,0.219 -4.352,0.219 -1.468,0 -2.898,-0.16 -4.351,-0.219 -1.875,-54.844 -45.719,-98.91 -100.465,-101.16 -0.043,-1.211 -0.184,-2.399 -0.184,-3.621 0,-1.223 0.141,-2.41 0.184,-3.625 54.746,-2.246 98.59,-46.317 100.465,-101.157 1.453,-0.058 2.883,-0.218 4.351,-0.218 1.469,0 2.895,0.16 4.352,0.218 1.875,54.84 45.719,98.911 100.465,101.157" /></g></g></svg>