<?xml version="1.0" encoding="UTF-8" standalone="no"?>
<svg
   xmlns:dc="http://purl.org/dc/elements/1.1/"
   xmlns:cc="http://creativecommons.org/ns#"
   xmlns:rdf="http://www.w3.org/1999/02/22-rdf-syntax-ns#"
   xmlns:svg="http://www.w3.org/2000/svg"
   xmlns="http://www.w3.org/2000/svg"
   viewBox="0 0 698.91296 211.66525"
   height="211.66525"
   width="698.91296"
   id="svg4518"
   version="1.1">
  <metadata
     id="metadata4524">
    <rdf:RDF>
      <cc:Work
         rdf:about="">
        <dc:format>image/svg+xml</dc:format>
        <dc:type
           rdf:resource="http://purl.org/dc/dcmitype/StillImage" />
        <dc:title></dc:title>
      </cc:Work>
    </rdf:RDF>
  </metadata>
  <defs
     id="defs4522" />
  <path
     id="path4640"
     d="m 257.91297,210.6305 c -10.53264,-1.06144 -25.40702,-3.45121 -34,-5.46256 -3.575,-0.8368 -8.525,-1.99832 -11,-2.58116 -5.70209,-1.34279 -19.27161,-5.5082 -24.5,-7.52071 -6.23709,-2.40079 -8.76228,-3.40927 -12,-4.7924 -2.91426,-1.24495 -23.47659,-11.34047 -29.84101,-14.65109 -11.17045,-5.8106 -38.91102,-26.15424 -46.822624,-34.33753 -2.93721,-3.03808 -2.0139,-5.95433 2.007174,-6.33957 1.92167,-0.18411 4.04796,0.29769 5,1.13296 2.34809,2.06009 38.41057,19.68737 40.27709,19.68737 0.85032,0 1.85444,0.3084 2.23137,0.68534 0.75464,0.75463 2.84049,1.55281 16.148,6.17927 4.95,1.7209 10.35,3.61019 12,4.19842 6.98715,2.49094 25.8581,7.21368 35.92693,8.99127 3.25981,0.5755 6.22344,1.22961 6.58584,1.45359 0.8218,0.5079 17.76262,2.90239 32.98723,4.66256 14.72216,1.70207 55.37609,1.73013 68.5,0.0473 18.24648,-2.33972 24.93214,-3.3448 32,-4.81069 3.85,-0.79849 9.25,-1.90899 12,-2.46778 15.28305,-3.10543 38.5514,-10.28572 55.18048,-17.02794 10.61249,-4.30283 16.31952,-3.62694 16.31952,1.93271 0,3.78248 -1.30496,5.19135 -10.01193,10.80917 -10.93649,7.05634 -10.37009,6.73736 -24.48807,13.79094 -22.63162,11.30714 -44.62968,18.18922 -76.5,23.933 -19.32212,3.4823 -47.79373,4.52383 -68,2.48753 z"
     style="fill:#ff9900;fill-opacity:1" />
  <path
     id="path4638"
     d="m 439.57964,196.09914 c -0.99045,-0.99044 -0.80684,-5.79014 0.26332,-6.88333 2.25483,-2.30336 9.93398,-26.7673 10.6846,-34.03861 0.77477,-7.50523 -0.39571,-9.97884 -5.37636,-11.36206 -5.00657,-1.39042 -20.19576,-1.32179 -33.44174,0.15109 -12.19698,1.35624 -14.18767,0.76754 -11.89441,-3.51746 1.17659,-2.19848 9.72069,-7.09029 16.59792,-9.50292 17.47882,-6.13184 45.14631,-5.26623 51.3788,1.60744 2.16868,2.39179 2.3307,3.24575 1.83435,9.66802 -1.31574,17.02435 -9.41533,36.56494 -19.89813,48.00507 -5.47788,5.97814 -8.36958,7.65154 -10.14835,5.87276 z"
     style="fill:#ff9900;fill-opacity:1" />
  <path
     id="path4636"
     d="m 534.91297,124.90164 c -6.34765,-1.00663 -16.83958,-6.46951 -22.09247,-11.50298 -5.98505,-5.73505 -10.87058,-14.251299 -14.41801,-25.132849 -2.7523,-8.44257 -2.93305,-9.99102 -2.9182,-25.00002 0.0178,-18.037343 1.18045,-23.875063 7.2086,-36.195983 10.20768,-20.8634324 32.2876,-30.7191324 54.55471,-24.3513124 3.75554,1.07399 8.70411,3.05476 10.99681,4.40171 6.95248,4.0845304 14.88622,13.1356024 18.53523,21.1455924 0.75167,1.65 1.72651,3.72109 2.16632,4.60243 2.86087,5.73298 4.37421,16.18085 4.40299,30.397563 0.0348,17.20164 -0.94034,22.29523 -6.53358,34.12703 -3.75517,7.943589 -13.01142,19.372989 -15.68947,19.372989 -0.66711,0 -1.21293,0.34767 -1.21293,0.7726 0,0.76915 -3.19165,2.5043 -10.15906,5.52299 -4.24072,1.83733 -18.29429,2.87843 -24.84094,1.84024 z"
     style="fill:#000000;fill-opacity:1" />
  <path
     id="path4634"
     d="m 549.35192,100.22776 c 4.09381,-1.942649 7.28661,-6.232189 9.08398,-12.204409 3.03707,-10.09142 2.75651,-41.385873 -0.4685,-52.257553 -1.60388,-5.40675 -4.99995,-8.79946 -10.14716,-10.13712 -4.12719,-1.07258 -5.05592,-0.96934 -9.16239,1.01857 -4.07341,1.97191 -4.86998,2.9401 -7.335,8.91535 -2.69445,6.5314 -2.76569,7.20296 -2.77974,26.203193 -0.0129,17.51164 0.21157,20.17066 2.20171,26.0771 1.41497,4.19939 3.38237,7.67975 5.44214,9.62723 4.93433,4.665339 7.85536,5.277209 13.16496,2.757639 z"
     style="fill:#ffffff;fill-opacity:1" />
  <path
     id="path4632"
     d="M 20.210759,122.88832 C 7.4306886,117.80902 0.88878556,108.13627 0.10255556,93.156631 c -0.48927,-9.32193 0.73033,-15.30919 4.56103304,-22.39083 C 11.638299,57.871951 24.121199,51.745531 50.781949,48.131578 l 13.369,-1.81222 -0.4874,-6.07196 c -0.6552,-8.16237 -2.88844,-12.18712 -8.06691,-14.53823 -5.56403,-2.52615 -8.32816,-2.42317 -14.25666,0.53112 -4.81223,2.39804 -8.42702,6.65746 -8.42702,9.9298 0,0.87764 -0.81881,2.41452 -1.81957,3.41528 -1.73419,1.73419 -2.36591,1.74592 -13.46431,0.25 C 2.4087986,37.783858 1.9123456,37.327068 4.8882286,28.112218 8.8805986,15.749816 17.795339,7.3601556 31.912959,2.6792856 c 8.9683,-2.97356003 30.03427,-3.28463003 37.499997,-0.55376 13.77811,5.03987 17.57845,8.0440004 22.2837,17.6149924 l 2.71631,5.52528 0.56672,31.499993 c 0.31169,17.32501 0.9496,32.60019 1.41758,33.94484 0.46797,1.34465 2.57545,4.90675 4.683284,7.91578 5.33626,7.617769 5.51823,6.954529 -4.153664,15.139399 -2.92466,2.475 -6.11915,5.25741 -7.09888,6.18314 -4.02339,3.80163 -6.70774,4.99817 -8.755,3.90251 -2.17037,-1.16155 -12.16005,-12.03486 -12.16005,-13.23566 0,-0.41293 -3.2505,1.69453 -7.223337,4.68324 -9.58455,7.21031 -16.47836,9.49753 -28.22083,9.36308 -5.89613,-0.0675 -10.52203,-0.68641 -13.25803,-1.7738 z"
     style="fill:#000000;fill-opacity:1" />
  <path
     id="path4630"
     d="m 51.557359,99.840991 c 7.5661,-4.61354 11.18373,-12.21479 12.05291,-25.32519 l 0.5801,-8.75001 -4.3887,0.0356 c -4.8175,0.0391 -14.41629,2.0988 -17.45697,3.74589 -2.97676,1.61246 -7.18805,6.41028 -8.36812,9.5336 -1.5264,4.03995 -1.31041,12.307 0.40838,15.63077 3.4225,6.618369 11.01243,8.885449 17.1724,5.12932 z"
     style="fill:#ffffff;fill-opacity:1" />
  <path
     id="path4628"
     d="m 303.90952,122.92887 c -5.09315,-1.88083 -10.64986,-5.47667 -13.24989,-8.57421 -6.85581,-8.16766 -9.51408,-22.705679 -6.36348,-34.801659 4.85966,-18.65751 18.27494,-27.19161 49.36682,-31.404613 l 13.25,-1.7954 -0.0165,-5.5436 c -0.0283,-9.55948 -6.42076,-17.08024 -14.4679,-17.02163 -6.99099,0.0509 -16.5156,7.41296 -16.5156,12.76573 0,4.35573 -2.82757,4.96353 -15.19145,3.26545 -6.2197,-0.85423 -11.92408,-1.94997 -12.6764,-2.43499 -3.22345,-2.07816 1.55889,-16.59859 7.65349,-23.237982 9.6054,-10.4640204 29.84744,-16.0880104 48.71436,-13.53466043 7.72247,1.04512003 17.13368,4.25919003 20.29239,6.93016003 6.88581,5.8225904 8.54121,7.7987704 10.86132,12.9660424 1.42046,3.16361 1.78691,8.82167 2.31597,35.758283 0.41221,20.98757 1.03408,32.94853 1.80702,34.75621 0.64818,1.51591 2.76359,5.1099 4.7009,7.98666 1.93732,2.876749 3.51708,5.911459 3.51057,6.743799 -0.007,0.83234 -2.819,3.8454 -6.25,6.69568 -3.43099,2.85028 -7.13817,6.01603 -8.23817,7.03499 -2.60872,2.41654 -6.75698,5.28268 -7.64578,5.28268 -1.32963,0 -7.14575,-5.42765 -10.88446,-10.15747 -3.68515,-4.66207 -3.77996,-4.70974 -5.52738,-2.77886 -3.09781,3.42304 -12.24058,8.97462 -18.1002,10.99063 -7.18158,2.47082 -20.80264,2.525 -27.34563,0.10876 z"
     style="fill:#000000;fill-opacity:1" />
  <path
     id="path4626"
     d="m 334.21263,100.13871 c 7.94379,-4.038729 12.70034,-14.358439 12.70034,-27.554409 v -6.81851 h -4.27164 c -2.34941,0 -7.33431,0.84925 -11.07757,1.88723 -10.48879,2.90846 -15.65079,9.09827 -15.65079,18.76703 0,11.85208 8.8789,18.508299 18.29966,13.718659 z"
     style="fill:#ffffff;fill-opacity:1" />
  <path
     id="path4624"
     d="m 121.13548,122.20911 -2.22251,-1.55671 V 63.409091 c 0,-43.189233 0.29462,-57.5379154 1.2,-58.4432954 0.80635,-0.80635 5.33333,-1.2 13.8,-1.2 8.46667,0 12.99365,0.39365 13.8,1.2 0.66,0.66 1.22646,3.6975 1.25881,6.7500004 0.0504,4.75833 0.22872,5.26527 1.25,3.5539 7.20047,-12.0659404 23.47229,-17.5509204 37.02449,-12.4803904 4.41169,1.65062 12.6667,7.8289704 12.6667,9.4802104 0,0.2241 1.06467,1.97633 2.36592,3.89384 2.31978,3.418382 2.38565,3.443102 3.377,1.26731 4.218,-9.2574904 17.07477,-16.66487043 28.9247,-16.66487043 10.70347,0 24.2117,7.98872003 27.72458,16.39622043 3.04129,7.278862 3.6078,16.581592 3.6078,59.244565 0,35.538569 -0.24567,43.312939 -1.41939,44.918099 -1.28057,1.75128 -2.70658,1.94113 -14.58061,1.94113 -11.96102,0 -13.2932,-0.18049 -14.60847,-1.97922 -1.21151,-1.65685 -1.42879,-8.61611 -1.33397,-42.725689 0.11135,-40.054793 0.0771,-40.797193 -2.01524,-43.735673 -5.81165,-8.16171 -19.38313,-4.70175 -22.90626,5.83979 -0.76899,2.30092 -1.13606,15.751033 -1.13606,41.627573 0,34.308119 -0.16925,38.369069 -1.65041,39.600779 -2.24726,1.86876 -22.39509,2.51045 -26.42411,0.84157 l -2.92548,-1.21177 V 82.803421 c 0,-47.058023 -0.31817,-48.853593 -9.22769,-52.075313 -5.41334,-1.95749 -11.16957,0.17034 -14.63968,5.41166 l -2.63263,3.97639 -0.28777,40.074823 c -0.34467,48.000609 1.23983,43.574829 -15.60051,43.574829 -8.48828,0 -11.69979,-0.37339 -13.38921,-1.5567 z"
     style="fill:#000000;fill-opacity:1" />
  <path
     id="path4622"
     d="m 611.13548,122.20911 -2.22251,-1.55671 V 63.409091 c 0,-43.189233 0.29462,-57.5379154 1.2,-58.4432954 0.80815,-0.80815 5.37354,-1.2 13.98095,-1.2 14.67554,0 13.59722,-0.84344 14.06327,11.0000004 l 0.25578,6.500002 2.31552,-4.500002 c 8.2419,-16.01742043 29.38228,-20.8387104 45.2704,-10.3244104 5.3015,3.50835 8.8151,9.0765904 11.0152,17.4564324 1.7304,6.59086 1.8989,11.24018 1.8989,52.389843 v 45.157119 l -2.5471,1.16051 c -1.4325,0.65272 -7.2912,1.16052 -13.3892,1.16052 -16.51738,0 -14.97785,4.42831 -15.2969,-44.000009 -0.24061,-36.521343 -0.4404,-40.817613 -2.03375,-43.733073 -4.41475,-8.07799 -15.08474,-8.19927 -20.75515,-0.23593 -4.30731,6.04907 -4.9043,12.09572 -4.9423,50.058493 l -0.0356,35.589489 -2.54705,1.16051 c -3.97781,1.81242 -23.49817,1.51758 -26.23044,-0.39618 z"
     style="fill:#000000;fill-opacity:1" />
  <path
     id="path4528"
     d="m 401.13548,119.20911 c -2.06327,-1.44517 -2.22251,-2.33011 -2.22251,-12.35078 0,-5.93674 0.52543,-12.323719 1.16761,-14.193299 1.12152,-3.26501 10.57372,-17.67307 21.25507,-32.39924 2.79253,-3.85 8.22732,-11.630163 12.07732,-17.289263 3.85,-5.6591 7.61739,-11.1716 8.37197,-12.25 1.34747,-1.92571 1.0523,-1.96073 -16.52749,-1.96073 -22.97317,0 -22.34448,0.351 -22.34448,-12.474922 0,-5.14883 0.27314,-10.0733104 0.60699,-10.9433004 0.53924,-1.40523 4.99094,-1.58178 39.88337,-1.58178 h 39.27638 l 0.60297,2.25 c 0.33164,1.2375 0.60913,5.4069604 0.61664,9.2654604 0.0137,7.067782 -1.43536,11.169092 -6.23039,17.633362 -5.51128,7.42986 -19.35386,26.928653 -21.49123,30.272773 -1.37856,2.15688 -2.91497,4.40688 -3.41425,5.00001 -0.49928,0.59312 -2.91086,4.0034 -5.35906,7.5784 l -4.45127,6.50001 6.72993,0.5853 c 16.31645,1.41905 34.06283,7.89769 35.37614,12.9147 1.30367,4.980239 0.92289,20.523229 -0.55222,22.540549 -1.58956,2.17386 -2.74034,1.96289 -16.4645,-3.01835 -18.00399,-6.53461 -42.64673,-5.08304 -60.54954,3.56665 -4.70125,2.2714 -3.70029,2.21559 -6.35745,0.35445 z"
     style="fill:#000000;fill-opacity:1" />
  <path
     id="path4530"
     d="m 94.570376,175.58912 c -18.25146,-10.84005 -18.89083,-44.97869 -1.09132,-58.27042 7.323024,-5.46845 19.846014,-9.58525 36.753404,-12.0823 6.86437,-1.0138 12.87344,-2.23603 13.35347,-2.71606 2.46533,-2.46533 -2.01339,-15.946959 -6.45958,-19.444339 -8.33299,-6.55473 -21.82569,-1.86179 -25.99392,9.04102 -1.57153,4.11065 -2.2454,4.28046 -12.664884,3.19141 -12.93189,-1.35165 -14.32985,-2.01718 -14.32985,-6.82205 0,-9.6232 14.32035,-24.784286 26.997454,-28.582436 10.28733,-3.082159 32.44055,-2.463027 41.85733,1.169817 4.67565,1.803792 10.3245,5.974642 13.62733,10.061793 l 5.64126,6.980896 1.07236,34.167369 c 0.96104,30.62019 1.47978,34.85788 4.99669,40.8186 2.15838,3.65818 3.92432,7.68638 3.92432,8.95155 0,2.49402 -17.52389,17.47871 -20.44053,17.47871 -0.97986,0 -4.50616,-2.97457 -7.83623,-6.61015 l -6.05466,-6.61016 -9.59234,6.15591 c -8.40205,5.39203 -11.28859,6.21923 -23.26202,6.66622 -11.46977,0.42818 -14.76863,-0.1424 -20.498284,-3.54538 z m 40.799174,-22.91526 c 4.7663,-4.39993 8.72838,-16.57955 8.72838,-26.83143 0,-3.64896 -0.90221,-4.45118 -4.99668,-4.44287 -9.22835,0.0187 -18.35518,3.68823 -23.04967,9.26731 -7.48372,8.89391 -5.82116,22.35102 3.23164,26.15744 6.51054,2.73747 9.44507,1.98034 16.08633,-4.15045 z"
     style="opacity:0;fill:#000000;fill-opacity:1;stroke:#12ff20;stroke-width:3.54492164;stroke-miterlimit:4;stroke-dasharray:none;stroke-opacity:1" />
  <path
     id="path4532"
     d="m 94.570376,175.58912 c -18.25146,-10.84005 -18.89083,-44.97869 -1.09132,-58.27042 7.323024,-5.46845 19.846014,-9.58525 36.753404,-12.0823 6.86437,-1.0138 12.87344,-2.23603 13.35347,-2.71606 2.46533,-2.46533 -2.01339,-15.946959 -6.45958,-19.444339 -8.33299,-6.55473 -21.82569,-1.86179 -25.99392,9.04102 -1.57153,4.11065 -2.2454,4.28046 -12.664884,3.19141 -12.93189,-1.35165 -14.32985,-2.01718 -14.32985,-6.82205 0,-9.6232 14.32035,-24.784286 26.997454,-28.582436 10.28733,-3.082159 32.44055,-2.463027 41.85733,1.169817 4.67565,1.803792 10.3245,5.974642 13.62733,10.061793 l 5.64126,6.980896 1.07236,34.167369 c 0.96104,30.62019 1.47978,34.85788 4.99669,40.8186 2.15838,3.65818 3.92432,7.68638 3.92432,8.95155 0,2.49402 -17.52389,17.47871 -20.44053,17.47871 -0.97986,0 -4.50616,-2.97457 -7.83623,-6.61015 l -6.05466,-6.61016 -9.59234,6.15591 c -8.40205,5.39203 -11.28859,6.21923 -23.26202,6.66622 -11.46977,0.42818 -14.76863,-0.1424 -20.498284,-3.54538 z m 40.799174,-22.91526 c 4.7663,-4.39993 8.72838,-16.57955 8.72838,-26.83143 0,-3.64896 -0.90221,-4.45118 -4.99668,-4.44287 -9.22835,0.0187 -18.35518,3.68823 -23.04967,9.26731 -7.48372,8.89391 -5.82116,22.35102 3.23164,26.15744 6.51054,2.73747 9.44507,1.98034 16.08633,-4.15045 z"
     style="opacity:0;fill:#000000;fill-opacity:1;stroke:#12ff20;stroke-width:3.54492164;stroke-miterlimit:4;stroke-dasharray:none;stroke-opacity:1" />
  <path
     id="path4534"
     d="m 94.570376,175.58912 c -18.25146,-10.84005 -18.89083,-44.97869 -1.09132,-58.27042 7.323024,-5.46845 19.846014,-9.58525 36.753404,-12.0823 6.86437,-1.0138 12.87344,-2.23603 13.35347,-2.71606 2.46533,-2.46533 -2.01339,-15.946959 -6.45958,-19.444339 -8.33299,-6.55473 -21.82569,-1.86179 -25.99392,9.04102 -1.57153,4.11065 -2.2454,4.28046 -12.664884,3.19141 -12.93189,-1.35165 -14.32985,-2.01718 -14.32985,-6.82205 0,-9.6232 14.32035,-24.784286 26.997454,-28.582436 10.28733,-3.082159 32.44055,-2.463027 41.85733,1.169817 4.67565,1.803792 10.3245,5.974642 13.62733,10.061793 l 5.64126,6.980896 1.07236,34.167369 c 0.96104,30.62019 1.47978,34.85788 4.99669,40.8186 2.15838,3.65818 3.92432,7.68638 3.92432,8.95155 0,2.49402 -17.52389,17.47871 -20.44053,17.47871 -0.97986,0 -4.50616,-2.97457 -7.83623,-6.61015 l -6.05466,-6.61016 -9.59234,6.15591 c -8.40205,5.39203 -11.28859,6.21923 -23.26202,6.66622 -11.46977,0.42818 -14.76863,-0.1424 -20.498284,-3.54538 z m 40.799174,-22.91526 c 4.7663,-4.39993 8.72838,-16.57955 8.72838,-26.83143 0,-3.64896 -0.90221,-4.45118 -4.99668,-4.44287 -9.22835,0.0187 -18.35518,3.68823 -23.04967,9.26731 -7.48372,8.89391 -5.82116,22.35102 3.23164,26.15744 6.51054,2.73747 9.44507,1.98034 16.08633,-4.15045 z"
     style="opacity:0;fill:#000000;fill-opacity:1;stroke:#12ff20;stroke-width:3.54492164;stroke-miterlimit:4;stroke-dasharray:none;stroke-opacity:1" />
  <path
     id="path4536"
     d="m 94.570376,175.58912 c -18.25146,-10.84005 -18.89083,-44.97869 -1.09132,-58.27042 7.323024,-5.46845 19.846014,-9.58525 36.753404,-12.0823 6.86437,-1.0138 12.87344,-2.23603 13.35347,-2.71606 2.46533,-2.46533 -2.01339,-15.946959 -6.45958,-19.444339 -8.33299,-6.55473 -21.82569,-1.86179 -25.99392,9.04102 -1.57153,4.11065 -2.2454,4.28046 -12.664884,3.19141 -12.93189,-1.35165 -14.32985,-2.01718 -14.32985,-6.82205 0,-9.6232 14.32035,-24.784286 26.997454,-28.582436 10.28733,-3.082159 32.44055,-2.463027 41.85733,1.169817 4.67565,1.803792 10.3245,5.974642 13.62733,10.061793 l 5.64126,6.980896 1.07236,34.167369 c 0.96104,30.62019 1.47978,34.85788 4.99669,40.8186 2.15838,3.65818 3.92432,7.68638 3.92432,8.95155 0,2.49402 -17.52389,17.47871 -20.44053,17.47871 -0.97986,0 -4.50616,-2.97457 -7.83623,-6.61015 l -6.05466,-6.61016 -9.59234,6.15591 c -8.40205,5.39203 -11.28859,6.21923 -23.26202,6.66622 -11.46977,0.42818 -14.76863,-0.1424 -20.498284,-3.54538 z m 40.799174,-22.91526 c 4.7663,-4.39993 8.72838,-16.57955 8.72838,-26.83143 0,-3.64896 -0.90221,-4.45118 -4.99668,-4.44287 -9.22835,0.0187 -18.35518,3.68823 -23.04967,9.26731 -7.48372,8.89391 -5.82116,22.35102 3.23164,26.15744 6.51054,2.73747 9.44507,1.98034 16.08633,-4.15045 z"
     style="opacity:0;fill:#000000;fill-opacity:1;stroke:#12ff20;stroke-width:3.54492164;stroke-miterlimit:4;stroke-dasharray:none;stroke-opacity:1" />
  <path
     id="path4538"
     d="m 94.570376,175.58912 c -18.25146,-10.84005 -18.89083,-44.97869 -1.09132,-58.27042 7.323024,-5.46845 19.846014,-9.58525 36.753404,-12.0823 6.86437,-1.0138 12.87344,-2.23603 13.35347,-2.71606 2.46533,-2.46533 -2.01339,-15.946959 -6.45958,-19.444339 -8.33299,-6.55473 -21.82569,-1.86179 -25.99392,9.04102 -1.57153,4.11065 -2.2454,4.28046 -12.664884,3.19141 -12.93189,-1.35165 -14.32985,-2.01718 -14.32985,-6.82205 0,-9.6232 14.32035,-24.784286 26.997454,-28.582436 10.28733,-3.082159 32.44055,-2.463027 41.85733,1.169817 4.67565,1.803792 10.3245,5.974642 13.62733,10.061793 l 5.64126,6.980896 1.07236,34.167369 c 0.96104,30.62019 1.47978,34.85788 4.99669,40.8186 2.15838,3.65818 3.92432,7.68638 3.92432,8.95155 0,2.49402 -17.52389,17.47871 -20.44053,17.47871 -0.97986,0 -4.50616,-2.97457 -7.83623,-6.61015 l -6.05466,-6.61016 -9.59234,6.15591 c -8.40205,5.39203 -11.28859,6.21923 -23.26202,6.66622 -11.46977,0.42818 -14.76863,-0.1424 -20.498284,-3.54538 z m 40.799174,-22.91526 c 4.7663,-4.39993 8.72838,-16.57955 8.72838,-26.83143 0,-3.64896 -0.90221,-4.45118 -4.99668,-4.44287 -9.22835,0.0187 -18.35518,3.68823 -23.04967,9.26731 -7.48372,8.89391 -5.82116,22.35102 3.23164,26.15744 6.51054,2.73747 9.44507,1.98034 16.08633,-4.15045 z"
     style="opacity:0;fill:#000000;fill-opacity:1;stroke:#12ff20;stroke-width:3.54492164;stroke-miterlimit:4;stroke-dasharray:none;stroke-opacity:1" />
  <path
     id="path4540"
     d="m 321.25317,264.21345 c -47.04182,-7.73872 -86.21496,-24.29622 -123.10018,-52.03134 -17.50585,-13.16318 -23.43626,-19.93059 -17.46556,-19.93059 1.13682,0 11.1529,4.40842 22.25796,9.7965 39.22009,19.02921 78.22946,30.67645 119.68009,35.7335 11.30286,1.37897 31.3821,1.81348 55.41778,1.19922 44.01737,-1.12492 65.93698,-4.96966 105.40337,-18.48794 27.10571,-9.28443 31.31456,-9.91789 31.31456,-4.71305 0,10.65833 -50.81922,34.93591 -93.5743,44.70271 -18.36586,4.19542 -26.81727,5.07075 -53.60082,5.5515 -20.40306,0.36622 -37.00579,-0.28613 -46.3329,-1.82051 z"
     style="opacity:0;fill:#000000;fill-opacity:1;stroke:#12ff20;stroke-width:3.54492164;stroke-miterlimit:4;stroke-dasharray:none;stroke-opacity:1" />
  <path
     id="path4542"
     d="m 321.25317,264.21345 c -47.04182,-7.73872 -86.21496,-24.29622 -123.10018,-52.03134 -17.50585,-13.16318 -23.43626,-19.93059 -17.46556,-19.93059 1.13682,0 11.1529,4.40842 22.25796,9.7965 39.22009,19.02921 78.22946,30.67645 119.68009,35.7335 11.30286,1.37897 31.3821,1.81348 55.41778,1.19922 44.01737,-1.12492 65.93698,-4.96966 105.40337,-18.48794 27.10571,-9.28443 31.31456,-9.91789 31.31456,-4.71305 0,10.65833 -50.81922,34.93591 -93.5743,44.70271 -18.36586,4.19542 -26.81727,5.07075 -53.60082,5.5515 -20.40306,0.36622 -37.00579,-0.28613 -46.3329,-1.82051 z"
     style="opacity:0;fill:#000000;fill-opacity:1;stroke:#12ff20;stroke-width:3.54492164;stroke-miterlimit:4;stroke-dasharray:none;stroke-opacity:1" />
  <path
     id="path4544"
     d="m 321.25317,264.21345 c -47.04182,-7.73872 -86.21496,-24.29622 -123.10018,-52.03134 -17.50585,-13.16318 -23.43626,-19.93059 -17.46556,-19.93059 1.13682,0 11.1529,4.40842 22.25796,9.7965 39.22009,19.02921 78.22946,30.67645 119.68009,35.7335 11.30286,1.37897 31.3821,1.81348 55.41778,1.19922 44.01737,-1.12492 65.93698,-4.96966 105.40337,-18.48794 27.10571,-9.28443 31.31456,-9.91789 31.31456,-4.71305 0,10.65833 -50.81922,34.93591 -93.5743,44.70271 -18.36586,4.19542 -26.81727,5.07075 -53.60082,5.5515 -20.40306,0.36622 -37.00579,-0.28613 -46.3329,-1.82051 z"
     style="opacity:0;fill:#000000;fill-opacity:1;stroke:#12ff20;stroke-width:3.54492164;stroke-miterlimit:4;stroke-dasharray:none;stroke-opacity:1" />
  <path
     id="path4546"
     d="m 321.25317,264.21345 c -47.04182,-7.73872 -86.21496,-24.29622 -123.10018,-52.03134 -17.50585,-13.16318 -23.43626,-19.93059 -17.46556,-19.93059 1.13682,0 11.1529,4.40842 22.25796,9.7965 39.22009,19.02921 78.22946,30.67645 119.68009,35.7335 11.30286,1.37897 31.3821,1.81348 55.41778,1.19922 44.01737,-1.12492 65.93698,-4.96966 105.40337,-18.48794 27.10571,-9.28443 31.31456,-9.91789 31.31456,-4.71305 0,10.65833 -50.81922,34.93591 -93.5743,44.70271 -18.36586,4.19542 -26.81727,5.07075 -53.60082,5.5515 -20.40306,0.36622 -37.00579,-0.28613 -46.3329,-1.82051 z"
     style="opacity:0;fill:#000000;fill-opacity:1;stroke:#12ff20;stroke-width:3.54492164;stroke-miterlimit:4;stroke-dasharray:none;stroke-opacity:1" />
  <path
     id="path4548"
     d="m 94.570376,175.58912 c -18.25146,-10.84005 -18.89083,-44.97869 -1.09132,-58.27042 7.323024,-5.46845 19.846014,-9.58525 36.753404,-12.0823 6.86437,-1.0138 12.87344,-2.23603 13.35347,-2.71606 2.46533,-2.46533 -2.01339,-15.946959 -6.45958,-19.444339 -8.33299,-6.55473 -21.82569,-1.86179 -25.99392,9.04102 -1.57153,4.11065 -2.2454,4.28046 -12.664884,3.19141 -12.93189,-1.35165 -14.32985,-2.01718 -14.32985,-6.82205 0,-9.6232 14.32035,-24.784286 26.997454,-28.582436 10.28733,-3.082159 32.44055,-2.463027 41.85733,1.169817 4.67565,1.803792 10.3245,5.974642 13.62733,10.061793 l 5.64126,6.980896 1.07236,34.167369 c 0.96104,30.62019 1.47978,34.85788 4.99669,40.8186 2.15838,3.65818 3.92432,7.68638 3.92432,8.95155 0,2.49402 -17.52389,17.47871 -20.44053,17.47871 -0.97986,0 -4.50616,-2.97457 -7.83623,-6.61015 l -6.05466,-6.61016 -9.59234,6.15591 c -8.40205,5.39203 -11.28859,6.21923 -23.26202,6.66622 -11.46977,0.42818 -14.76863,-0.1424 -20.498284,-3.54538 z m 40.799174,-22.91526 c 4.7663,-4.39993 8.72838,-16.57955 8.72838,-26.83143 0,-3.64896 -0.90221,-4.45118 -4.99668,-4.44287 -9.22835,0.0187 -18.35518,3.68823 -23.04967,9.26731 -7.48372,8.89391 -5.82116,22.35102 3.23164,26.15744 6.51054,2.73747 9.44507,1.98034 16.08633,-4.15045 z"
     style="opacity:0;fill:#000000;fill-opacity:1;stroke:#12ff20;stroke-width:3.54492164;stroke-miterlimit:4;stroke-dasharray:none;stroke-opacity:1" />
</svg>
