<?xml version="1.0" encoding="UTF-8" standalone="no"?>
<svg
   xmlns:dc="http://purl.org/dc/elements/1.1/"
   xmlns:cc="http://creativecommons.org/ns#"
   xmlns:rdf="http://www.w3.org/1999/02/22-rdf-syntax-ns#"
   xmlns:svg="http://www.w3.org/2000/svg"
   xmlns="http://www.w3.org/2000/svg"
   version="1.1"
   width="336.10724"
   height="127.7315"
   id="svg13"
   viewBox="0 0 336.10724 127.7315">
  <metadata
     id="metadata19">
    <rdf:RDF>
      <cc:Work
         rdf:about="">
        <dc:format>image/svg+xml</dc:format>
        <dc:type
           rdf:resource="http://purl.org/dc/dcmitype/StillImage" />
        <dc:title></dc:title>
      </cc:Work>
    </rdf:RDF>
  </metadata>
  <defs
     id="defs17" />
  <g
     transform="translate(-140.31447,-357.0792)"
     id="Layer1000">
    <path
       d="m 202.2012,437.7942 h 16.1489 c -1.0871,7.1762 -5.3159,12.695 -11.8176,16.7548 -6.5112,4.0657 -14.8319,6.0883 -24.9345,6.0883 -12.7331,0 -22.8299,-2.9623 -30.2797,-9.437 -7.4656,-6.4885 -10.9528,-15.8657 -11.0033,-27.5789 -0.1084,-25.1194 16.5388,-38.0074 40.4715,-38.2661 27.1502,-0.2936 41.1754,14.9999 39.9056,41.57 l -64.2679,0.0537 c 0.9958,14.8233 10.1251,23.2534 25.2578,23.2534 8.21,0 17.0035,-3.1567 20.5192,-12.4382 z m -45.3465,-21.529 h 47.1806 c -1.3206,-13.9663 -9.5154,-20.1435 -23.081,-20.5772 -11.4702,-0.3667 -23.0131,6.9912 -24.0996,20.5772 z"
       style="fill:#e62d37;fill-rule:evenodd"
       id="path2" />
    <path
       d="m 235.9377,457.9896 h -15.6345 l 0.4765,-14.1263 -1e-4,-86.7841 h 16.0169 v 40.3356 c 5.8537,-7.242 16.1293,-12.0334 26.5212,-12.0334 11.3121,0 21.0503,1.9859 29.4789,10.3638 7.0592,7.0168 10.6495,17.0418 10.7282,27.0849 0.1008,12.8503 -4.7033,22.2267 -12.6904,29.0517 -7.9845,6.8227 -17.6976,9.522 -28.7762,8.6254 -10.9742,-0.8882 -19.2168,-5.4615 -25.5489,-12.3388 z m 0.5815,-35.9242 c 0.4852,14.924 7.744,27.413 24.2137,27.7914 6.9562,0.1597 13.2338,-2.0937 18.2986,-6.8529 5.053,-4.7481 7.8766,-11.0487 7.8766,-20.4642 0,-9.6289 -3.0117,-15.2195 -7.8612,-19.7968 -4.8495,-4.5773 -10.7234,-6.8779 -17.5911,-6.8779 -14.4304,0 -25.401,11.9101 -24.9366,26.2004 z"
       style="fill:#005aa2;fill-rule:evenodd"
       id="path4" />
    <path
       d="m 363.0369,448.0894 c -8.4703,10.397 -19.0135,12.3768 -31.1481,12.4125 -12.9356,0.038 -28.3631,-5.3847 -29.9985,-21.4681 -0.3641,-3.5819 1.031,-9.4676 2.9764,-12.3478 6.4905,-9.6094 20.807,-11.6251 31.3347,-12.0904 11.4592,-0.5066 20.2715,-0.5229 25.6823,-0.5941 -0.003,-1.6698 -0.015,-3.5903 -0.015,-4.0302 0,-9.7904 -8.9674,-14.1825 -19.3348,-14.1825 -10.4617,0 -17.6925,3.2262 -18.5011,10.7592 h -16.8766 c 1.8173,-10.2596 6.8431,-15.5366 17.3663,-18.8082 5.4377,-1.6905 11.7351,-2.7253 18.9111,-2.5474 19.3469,0.48 34.3844,6.8024 34.3844,27.2105 v 16.28 c 0,3.4041 -0.4723,24.3649 0.5159,29.4867 h -14.6785 c -0.7563,-4.1918 -0.4188,-6.7303 -0.6185,-10.0802 z m -1.2335,-23.4385 c -10.7562,-0.1369 -25.1816,-0.6857 -35.7809,2.6432 -8.9133,2.7993 -9.8895,13.8095 -3.0773,19.2581 10.0102,8.0067 29.9855,4.274 36.1853,-7.3377 2.6613,-4.9843 2.6729,-9.073 2.6729,-14.5636 z"
       style="fill:#fdbe00;fill-rule:evenodd"
       id="path6" />
    <path
       d="m 467.7164,392.3998 0.01,0.6424 c -0.204,0.0428 -0.7686,0.0648 -0.9297,0.0648 -0.9182,0 -1.0104,-0.5606 -1.0104,-1.3123 v -2.2769 h -1.1052 v -0.5651 h 1.1052 v -0.8723 l 0.7236,-0.003 v 0.8751 h 1.1563 v 0.5651 h -1.1563 v 2.3169 c 0,0.2079 0.0115,0.341 0.0373,0.3997 0.1452,0.3314 0.9234,0.2013 1.1697,0.1654 z m 1.2754,0.6507 v -4.0978 h 0.6492 v 0.6009 c 0.5509,-0.8544 2.8784,-1.081 3.2738,0.0524 0.8026,-1.1792 3.5069,-1.1825 3.5069,0.5953 v 2.8492 h -0.7223 v -2.6065 c 0,-0.7432 -0.4399,-1.0545 -1.1448,-1.0545 -0.8356,0 -1.4315,0.4466 -1.4315,1.264 v 2.397 h -0.7264 v -2.6906 c 0,-0.6119 -0.6003,-0.9704 -1.1407,-0.9704 -0.9587,0 -1.5377,0.5868 -1.5377,1.5314 v 2.1296 z"
       style="fill:#1b1918;fill-rule:evenodd"
       id="path8" />
    <path
       d="m 415.1554,442.7857 -27.5138,-54.7364 h -18.5264 l 37.1683,69.9412 -14.2057,26.8202 h 17.7132 l 49.2911,-96.7614 h -16.7333 z"
       style="fill:#81b917;fill-rule:evenodd"
       id="path10" />
  </g>
</svg>
