<?xml version="1.0" encoding="UTF-8" standalone="no"?>
<svg
   xmlns:dc="http://purl.org/dc/elements/1.1/"
   xmlns:cc="http://creativecommons.org/ns#"
   xmlns:rdf="http://www.w3.org/1999/02/22-rdf-syntax-ns#"
   xmlns:svg="http://www.w3.org/2000/svg"
   xmlns="http://www.w3.org/2000/svg"
   xmlns:sodipodi="http://sodipodi.sourceforge.net/DTD/sodipodi-0.dtd"
   xmlns:inkscape="http://www.inkscape.org/namespaces/inkscape"
   width="2279.4231"
   height="2279.4102"
   viewBox="0 0 175.74899 175.74799"
   version="1.1"
   id="svg12"
   sodipodi:docname="the-home-depot-2.svg"
   inkscape:version="0.92.4 (5da689c313, 2019-01-14)">
  <metadata
     id="metadata18">
    <rdf:RDF>
      <cc:Work
         rdf:about="">
        <dc:format>image/svg+xml</dc:format>
        <dc:type
           rdf:resource="http://purl.org/dc/dcmitype/StillImage" />
      </cc:Work>
    </rdf:RDF>
  </metadata>
  <defs
     id="defs16" />
  <sodipodi:namedview
     pagecolor="#ffffff"
     bordercolor="#666666"
     borderopacity="1"
     objecttolerance="10"
     gridtolerance="10"
     guidetolerance="10"
     inkscape:pageopacity="0"
     inkscape:pageshadow="2"
     inkscape:window-width="1920"
     inkscape:window-height="1001"
     id="namedview14"
     showgrid="false"
     inkscape:zoom="0.0944"
     inkscape:cx="-152.65479"
     inkscape:cy="1139.7051"
     inkscape:window-x="-9"
     inkscape:window-y="-9"
     inkscape:window-maximized="1"
     inkscape:current-layer="g10" />
  <g
     id="g10"
     style="clip-rule:evenodd;fill-rule:evenodd"
     transform="translate(-8.503,-8.504)">
    <path
       d="M 0,0 H 192.756 V 192.756 H 0 Z"
       id="path2"
       inkscape:connector-curvature="0"
       style="fill:#ffffff" />
    <path
       d="M 8.504,8.504 H 184.252 V 184.252 H 8.504 Z"
       id="path4"
       inkscape:connector-curvature="0"
       style="fill:#db812e" />
    <path
       d="m 47.492,147.626 -4.561,4.559 -3,-3.007 4.552,-4.558 -11.784,-11.779 c -1.913,-1.916 -2.174,-2.278 -4.56,-1.04 -0.875,0.468 -1.817,0.462 -2.536,-0.265 -1.505,-1.503 0.102,-3.306 0.311,-3.52 l 14.651,-14.65 c 0.207,-0.207 2.014,-1.809 3.519,-0.314 0.728,0.731 0.734,1.663 0.266,2.541 -1.245,2.385 -0.88,2.643 1.038,4.559 l 27.188,27.193 c 1.917,1.923 2.177,2.289 4.563,1.037 0.882,-0.461 1.81,-0.457 2.539,0.267 1.5,1.506 -0.098,3.318 -0.304,3.527 L 64.72,166.823 c -0.21,0.206 -2.023,1.809 -3.526,0.312 -0.722,-0.731 -0.724,-1.662 -0.264,-2.544 1.249,-2.381 0.883,-2.642 -1.036,-4.561 z m -0.199,36.626 h -5.977 l 0.046,-0.093 c 1.238,-2.374 0.878,-2.639 -1.039,-4.558 L 13.132,152.414 c -1.925,-1.925 -2.18,-2.288 -4.562,-1.047 -0.022,0.013 -0.044,0.023 -0.067,0.035 v -5.98 l 12.491,-12.489 c 0.207,-0.201 2.017,-1.812 3.517,-0.313 0.726,0.731 0.734,1.661 0.267,2.541 -1.247,2.391 -0.883,2.645 1.042,4.569 l 27.188,27.183 c 1.92,1.926 2.176,2.289 4.562,1.045 0.88,-0.467 1.813,-0.467 2.539,0.262 1.501,1.506 -0.103,3.315 -0.308,3.521 z m 74.65,-152.265 13.662,-13.666 38.816,38.799 -13.668,13.674 c -0.209,0.207 -2.025,1.811 -3.527,0.31 -0.725,-0.728 -0.725,-1.665 -0.26,-2.541 1.24,-2.383 0.883,-2.644 -1.041,-4.567 L 128.73,36.808 c -1.918,-1.914 -2.174,-2.281 -4.561,-1.037 -0.881,0.465 -1.816,0.465 -2.537,-0.262 -1.505,-1.498 0.106,-3.319 0.311,-3.522 z M 145.422,8.504 h 8.129 l 6.465,6.468 c 0.262,0.258 1.199,1.303 -0.357,2.848 -0.883,0.884 -1.662,0.625 -2.697,0.11 -5.545,-2.868 -10.73,-2.76 -16.014,1.067 l -3.012,-3.005 z m 38.83,29.981 v 8.809 l -7.504,7.499 -3.004,-3.005 c 3.678,-4.716 4.027,-10.778 1.275,-16.323 -0.416,-1.143 -0.938,-2.287 -0.004,-3.213 1.658,-1.659 3.057,0.055 3.262,0.266 z m -28.981,-5.169 c 1.605,-2.744 0.561,-5.75 -0.947,-8.192 -0.611,-1.133 -1.135,-2.282 -0.051,-3.368 1.604,-1.597 3.221,0.524 3.637,0.939 l 11.201,11.204 c 0.414,0.414 2.541,2.028 0.939,3.63 -1.09,1.092 -2.229,0.562 -3.375,-0.057 -2.439,-1.502 -5.443,-2.537 -8.188,-0.942 z m -48.166,144.528 -6.41,6.408 h -3.41 c 0.09,-0.203 0.201,-0.412 0.305,-0.634 0.385,-0.724 -0.461,-1.46 -0.898,-1.896 L 81.405,166.434 c -0.439,-0.436 -1.165,-1.281 -1.894,-0.901 -0.788,0.379 -1.429,0.846 -2.161,0.12 -0.756,-0.759 -0.115,-1.58 0.469,-2.158 l 7.467,-7.468 z m 48.885,-92.526 7.15,-7.147 18.551,18.552 c 1.078,1.08 1.229,1.284 2.561,0.588 v 3.388 l -6.994,6.991 c -0.117,0.117 -1.137,1.024 -1.984,0.174 -0.406,-0.406 -0.408,-0.929 -0.146,-1.425 0.703,-1.342 0.496,-1.487 -0.578,-2.566 z m 19.461,-5.866 c 0.117,0.119 0.758,0.934 -0.119,1.808 -0.816,0.815 -1.721,0.207 -2.447,-0.353 -1.811,-1.278 -4.145,-2.794 -6.738,-2.354 l -1.695,-1.692 4.201,-4.205 z m -24.969,11.379 4.199,-4.199 1.693,1.69 c -0.441,2.598 1.078,4.929 2.361,6.738 0.555,0.729 1.162,1.635 0.348,2.449 -0.873,0.875 -1.689,0.237 -1.809,0.116 z m 19.832,84.828 c 0,-2.836 2.299,-4.926 5.018,-4.926 2.691,0 4.992,2.09 4.992,4.926 0,2.863 -2.301,4.953 -4.992,4.953 -2.717,0 -5.018,-2.09 -5.018,-4.953 z m 5.018,4.131 c 2.236,0 4,-1.752 4,-4.131 0,-2.34 -1.764,-4.102 -4,-4.102 -2.262,0 -4.025,1.762 -4.023,4.102 0,2.379 1.761,4.131 4.023,4.131 z m -1.045,-1.268 h -0.861 v -5.699 h 2.168 c 1.348,0 2.012,0.496 2.012,1.621 0,1.018 -0.641,1.465 -1.475,1.567 l 1.621,2.511 h -0.969 l -1.504,-2.47 h -0.992 z m 1.033,-3.202 c 0.73,0 1.385,-0.053 1.385,-0.929 0,-0.704 -0.639,-0.836 -1.242,-0.836 h -1.176 v 1.765 z M 61.433,96.957 c -1.554,3.312 -0.202,5.075 1.097,6.372 l 26.875,26.875 c 1.297,1.299 3.064,2.647 6.375,1.096 l 3.009,3.012 c -11.962,9.988 -25.956,6.244 -36.284,-4.08 -10.322,-10.327 -14.07,-24.325 -4.08,-36.285 z m 36.68,32.018 c 1.551,-3.312 0.201,-5.083 -1.102,-6.378 l -26.87,-26.88 c -1.299,-1.293 -3.066,-2.642 -6.374,-1.088 l -3.011,-3.007 c 11.958,-9.992 25.959,-6.249 36.283,4.075 10.322,10.327 14.07,24.321 4.08,36.285 z m 57.209,-55.966 c -0.73,-0.72 -1.658,-0.729 -2.543,-0.259 -2.385,1.241 -2.639,0.879 -4.561,-1.042 L 121.027,44.522 c -1.924,-1.919 -2.289,-2.177 -1.037,-4.566 0.457,-0.877 0.457,-1.814 -0.268,-2.54 -1.502,-1.503 -3.312,0.103 -3.516,0.308 l -13.674,13.667 11.164,20.692 -0.107,0.099 L 92.131,61.8 78.986,74.944 c -0.619,0.618 -2.179,2.172 -0.574,3.782 1.244,1.249 2.75,-0.046 3.421,-0.62 0.934,-0.825 1.769,-0.411 3.007,-0.096 1.089,0.259 2.126,0.78 3.165,1.304 l 42.927,21.289 1.5,-1.498 -20.998,-38.811 24.096,24.096 c 1.92,1.921 2.283,2.184 1.039,4.562 -0.471,0.886 -0.463,1.815 0.27,2.541 1.498,1.501 3.311,-0.098 3.52,-0.308 l 14.658,-14.653 c 0.21,-0.208 1.805,-2.022 0.305,-3.523 z m -40.556,27.369 -8.922,-8.922 -11.458,-5.663 -0.104,0.106 17.48,17.485 c 5.656,7.313 0.324,8.605 2.559,10.838 1.607,1.603 3.623,-0.623 4.189,-1.197 l 5.904,-5.895 c 0.568,-0.57 2.789,-2.582 1.18,-4.191 -2.229,-2.233 -3.514,3.099 -10.828,-2.561 z m -28.17,54.333 c 4.9,-5.019 12.482,-5.718 20.361,1.464 7.176,6.529 6.303,15.513 1.461,20.356 l -1.691,-1.692 c 1.547,-2.016 -0.031,-3.767 -1.143,-4.871 l -12.423,-12.43 c -1.11,-1.105 -2.859,-2.68 -4.87,-1.135 z m 10.879,-10.877 7.697,-7.699 21.822,21.82 -7.701,7.699 c -0.115,0.114 -1.139,1.02 -1.984,0.176 -0.406,-0.409 -0.41,-0.935 -0.146,-1.43 0.703,-1.339 0.498,-1.486 -0.58,-2.568 l -15.285,-15.284 c -1.08,-1.077 -1.229,-1.283 -2.568,-0.587 -0.496,0.269 -1.023,0.268 -1.432,-0.141 -0.846,-0.844 0.061,-1.87 0.177,-1.986 z m 9.011,-9.013 6.504,-6.503 5.924,5.918 c 0.143,0.147 0.674,0.729 -0.203,1.608 -0.5,0.495 -0.93,0.35 -1.518,0.057 -3.123,-1.604 -6.037,-1.545 -9.016,0.609 z m 20.129,20.129 c 2.068,-2.653 2.275,-6.068 0.729,-9.194 -0.23,-0.64 -0.529,-1.28 -0.004,-1.805 0.938,-0.934 1.725,0.028 1.842,0.146 l 5.836,5.836 -6.709,6.709 z m -10.388,-10.388 c 0.906,-1.543 0.324,-3.232 -0.523,-4.604 -0.354,-0.643 -0.645,-1.288 -0.029,-1.902 0.906,-0.9 1.811,0.295 2.045,0.53 l 6.303,6.303 c 0.23,0.229 1.426,1.135 0.518,2.04 -0.607,0.614 -1.252,0.321 -1.895,-0.032 -1.369,-0.841 -3.057,-1.427 -4.605,-0.521 z m 8.021,-27.502 c 2.773,-2.773 4.697,-4.119 6.859,-4.696 3.445,-0.878 6.215,0.202 8.668,2.648 2.447,2.448 3.527,5.224 2.652,8.667 -0.586,2.161 -1.926,4.088 -4.699,6.857 l -1.691,-1.688 c 1.398,-2.048 0.293,-3.331 -1.135,-4.764 l -4.404,-4.404 c -1.314,-1.309 -2.775,-2.244 -4.557,-0.93 z m -5.193,11.731 c -1.078,-1.08 -1.225,-1.282 -2.568,-0.587 -0.496,0.267 -1.02,0.261 -1.428,-0.149 -0.844,-0.843 0.061,-1.866 0.176,-1.982 l 7.701,-7.697 18.555,18.556 c 1.076,1.073 1.223,1.283 2.564,0.579 0.498,-0.261 1.023,-0.263 1.432,0.144 0.85,0.846 -0.057,1.868 -0.174,1.983 l -8.256,8.256 c -0.115,0.122 -0.908,0.794 -1.754,-0.048 -0.41,-0.412 -0.48,-0.869 -0.217,-1.365 0.699,-1.34 0.332,-1.327 -0.744,-2.408 z"
       id="path6"
       inkscape:connector-curvature="0"
       style="fill:#ffffff" />
    <path
       d="m 142.74,101.083 c -0.877,1.866 -0.121,2.855 0.609,3.583 l 15.113,15.11 c 0.73,0.73 1.721,1.489 3.588,0.612 l 1.691,1.692 c -6.736,5.633 -14.615,3.535 -20.416,-2.273 -5.809,-5.805 -7.908,-13.681 -2.281,-20.421 z m 20.621,17.994 c 0.875,-1.865 0.117,-2.854 -0.613,-3.587 l -15.109,-15.109 c -0.73,-0.733 -1.721,-1.489 -3.588,-0.616 l -1.689,-1.689 c 6.74,-5.633 14.615,-3.529 20.416,2.276 5.805,5.806 7.912,13.676 2.279,20.419 z M 29.564,75.051 36.281,68.335 53.719,85.772 c 1.015,1.016 1.152,1.207 2.413,0.549 0.466,-0.248 0.959,-0.248 1.344,0.137 0.795,0.793 -0.056,1.754 -0.164,1.864 l -7.76,7.76 c -0.11,0.108 -1.069,0.959 -1.864,0.162 -0.385,-0.381 -0.385,-0.876 -0.138,-1.342 0.657,-1.261 0.466,-1.398 -0.548,-2.412 z M 47.853,69.54 c 0.11,0.109 0.711,0.876 -0.11,1.7 -0.769,0.768 -1.618,0.192 -2.303,-0.329 -1.701,-1.207 -3.894,-2.633 -6.334,-2.222 l -1.59,-1.59 3.949,-3.946 z m -23.471,10.693 3.949,-3.948 1.59,1.59 c -0.411,2.44 1.015,4.634 2.221,6.334 0.521,0.685 1.097,1.535 0.33,2.302 -0.823,0.824 -1.591,0.22 -1.701,0.108 z m 43.595,-8.718 c 1.014,1.014 1.151,1.206 2.412,0.548 0.466,-0.246 0.96,-0.246 1.344,0.136 0.794,0.795 -0.056,1.756 -0.165,1.865 l -7.759,7.759 c -0.11,0.11 -1.07,0.96 -1.865,0.166 -0.382,-0.385 -0.384,-0.878 -0.136,-1.345 0.658,-1.259 0.466,-1.397 -0.549,-2.412 L 46.893,63.865 c -1.014,-1.015 -1.152,-1.207 -2.414,-0.549 -0.467,0.248 -0.959,0.248 -1.343,-0.137 -0.795,-0.794 0.055,-1.755 0.164,-1.864 l 7.76,-7.76 c 0.11,-0.108 1.069,-0.96 1.864,-0.164 0.385,0.384 0.385,0.877 0.136,1.344 -0.656,1.26 -0.465,1.398 0.55,2.412 z m -2.906,-10.201 -2.413,2.413 -1.59,-1.591 2.413,-2.413 -6.224,-6.223 c -1.015,-1.014 -1.152,-1.207 -2.413,-0.549 -0.466,0.247 -0.959,0.247 -1.344,-0.137 -0.795,-0.795 0.056,-1.754 0.165,-1.865 l 7.759,-7.758 c 0.11,-0.11 1.07,-0.96 1.865,-0.165 0.383,0.384 0.383,0.877 0.138,1.344 -0.658,1.26 -0.466,1.398 0.548,2.413 L 78.341,61.15 c 1.015,1.015 1.151,1.206 2.413,0.548 0.466,-0.247 0.959,-0.247 1.343,0.137 0.795,0.795 -0.055,1.754 -0.164,1.864 l -7.759,7.759 c -0.11,0.11 -1.069,0.959 -1.866,0.164 -0.382,-0.383 -0.382,-0.877 -0.136,-1.343 0.658,-1.261 0.466,-1.398 -0.548,-2.412 z m -1.063,-20.707 7.239,-7.238 20.509,20.508 -7.238,7.239 c -0.109,0.11 -1.069,0.959 -1.865,0.165 -0.384,-0.384 -0.384,-0.877 -0.138,-1.343 0.659,-1.262 0.467,-1.398 -0.548,-2.413 L 67.6,43.156 c -1.014,-1.014 -1.152,-1.207 -2.413,-0.548 -0.466,0.248 -0.959,0.248 -1.343,-0.135 -0.795,-0.797 0.054,-1.756 0.164,-1.866 z m 8.473,-8.472 6.114,-6.114 5.565,5.565 c 0.137,0.137 0.63,0.685 -0.192,1.507 -0.467,0.466 -0.877,0.329 -1.425,0.055 -2.935,-1.507 -5.676,-1.454 -8.472,0.575 z m 18.918,18.919 c 1.947,-2.495 2.139,-5.703 0.686,-8.637 -0.219,-0.604 -0.495,-1.207 0,-1.7 0.876,-0.877 1.618,0.027 1.726,0.137 l 5.484,5.484 -6.305,6.306 z m -9.76,-9.763 c 0.849,-1.452 0.301,-3.042 -0.494,-4.331 -0.329,-0.604 -0.603,-1.206 -0.028,-1.782 0.851,-0.851 1.701,0.273 1.92,0.494 l 5.922,5.922 c 0.219,0.219 1.343,1.07 0.495,1.919 -0.577,0.575 -1.18,0.301 -1.784,-0.028 -1.289,-0.794 -2.879,-1.343 -4.332,-0.493 z"
       id="path8"
       inkscape:connector-curvature="0"
       style="fill:#ffffff" />
  </g>
</svg>
