<?xml version="1.0" encoding="UTF-8" standalone="no"?>
<svg
   xmlns:dc="http://purl.org/dc/elements/1.1/"
   xmlns:cc="http://creativecommons.org/ns#"
   xmlns:rdf="http://www.w3.org/1999/02/22-rdf-syntax-ns#"
   xmlns:svg="http://www.w3.org/2000/svg"
   xmlns="http://www.w3.org/2000/svg"
   viewBox="0 0 780.34668 218.56"
   height="218.56"
   width="780.34668"
   xml:space="preserve"
   id="svg2"
   version="1.1"><metadata
     id="metadata8"><rdf:RDF><cc:Work
         rdf:about=""><dc:format>image/svg+xml</dc:format><dc:type
           rdf:resource="http://purl.org/dc/dcmitype/StillImage" /></cc:Work></rdf:RDF></metadata><defs
     id="defs6" /><g
     transform="matrix(1.3333333,0,0,-1.3333333,0,218.56)"
     id="g10"><g
       transform="scale(0.1)"
       id="g12"><path
         id="path14"
         style="fill:#2d7bc8;fill-opacity:1;fill-rule:nonzero;stroke:none"
         d="m 115.816,146.398 c 15.883,-8.097 40.301,-16.25 65.457,-16.25 27.129,0 41.485,11.211 41.485,28.262 0,16.289 -12.403,25.551 -43.793,36.801 -43.399,15.18 -71.66,39.117 -71.66,77.129 0,44.57 37.187,78.648 98.769,78.648 29.453,0 51.156,-6.207 66.656,-13.218 l -13.179,-47.641 c -10.465,5.043 -29.067,12.441 -54.629,12.441 -25.57,0 -37.953,-11.679 -37.953,-25.172 0,-16.679 14.703,-24.027 48.426,-36.82 46.089,-17.066 67.793,-41.066 67.793,-77.848 0,-43.808 -33.711,-81.3902 -105.395,-81.3902 -29.824,0 -59.258,8.0704 -73.977,16.25 l 12,48.8082" /><path
         id="path16"
         style="fill:#2d7bc8;fill-opacity:1;fill-rule:nonzero;stroke:none"
         d="m 424.988,175.109 c -31.004,0.371 -55.031,-7.007 -55.031,-29.839 0,-15.122 10.078,-22.5 23.258,-22.5 14.707,0 26.73,9.691 30.613,21.718 0.766,3.063 1.16,6.582 1.16,10.063 z m 57.325,-43.418 c 0,-18.222 0.773,-35.6402 2.722,-46.0699 h -53.082 l -3.484,18.9809 h -1.168 C 414.895,89.4102 395.547,81.3398 373.074,81.3398 c -38.371,0 -61.222,27.8712 -61.222,58.1092 0,49.18 44.164,72.813 111.211,72.442 v 2.73 c 0,10.039 -5.45,24.379 -34.489,24.379 -19.41,0 -39.918,-6.578 -52.301,-14.34 l -10.859,37.969 c 13.176,7.383 39.129,16.699 73.609,16.699 63.129,0 83.29,-37.238 83.29,-81.777 v -65.86" /><path
         id="path18"
         style="fill:#2d7bc8;fill-opacity:1;fill-rule:nonzero;stroke:none"
         d="m 567.938,275.031 25.57,-87.929 c 4.652,-15.93 8.137,-31.012 10.847,-46.09 h 1.168 c 3.094,15.508 6.196,29.808 10.454,46.09 l 24.39,87.929 h 62.012 L 631.859,85.6211 H 572.98 L 504.02,275.031 h 63.918" /><path
         id="path20"
         style="fill:#2d7bc8;fill-opacity:1;fill-rule:nonzero;stroke:none"
         d="m 838.379,201.828 c 0,14.301 -6.223,38.344 -33.328,38.344 -24.809,0 -34.871,-22.481 -36.434,-38.344 z m -69.34,-40.289 c 1.902,-24.379 25.934,-36.059 53.457,-36.059 20.121,0 36.399,2.758 52.289,7.739 l 7.758,-39.8987 c -19.395,-7.6992 -42.996,-11.9805 -68.594,-11.9805 -64.324,0 -101.129,37.5822 -101.129,96.8592 0,47.992 29.86,101.129 95.703,101.129 61.211,0 84.481,-47.648 84.481,-94.527 0,-10.102 -1.184,-19.039 -1.953,-23.262 H 769.039" /><path
         id="path22"
         style="fill:#2d7bc8;fill-opacity:1;fill-rule:nonzero;stroke:none"
         d="m 1006.51,214.621 c 0,23.617 -0.78,43.77 -1.57,60.41 h 49.6 l 2.71,-25.562 h 1.17 c 8.15,12.011 24.8,29.859 57.35,29.859 24.39,0 43.77,-12.398 51.91,-32.168 h 0.77 c 6.97,10.102 15.5,17.41 24.4,22.852 10.47,6.218 22.09,9.316 36.05,9.316 36.39,0 63.9,-25.598 63.9,-82.168 V 85.6211 h -57.33 V 188.629 c 0,27.5 -8.91,43.422 -27.88,43.422 -13.58,0 -23.25,-9.321 -27.13,-20.571 -1.55,-4.242 -2.34,-10.449 -2.34,-15.082 V 85.6211 H 1120.8 V 191.77 c 0,23.992 -8.54,40.281 -27.11,40.281 -15.12,0 -24.01,-11.641 -27.51,-21.289 -1.96,-4.653 -2.34,-10.102 -2.34,-14.75 V 85.6211 h -57.33 V 214.621" /><path
         id="path24"
         style="fill:#2d7bc8;fill-opacity:1;fill-rule:nonzero;stroke:none"
         d="m 1389.67,180.5 c 0,-32.559 13.55,-56.949 38.74,-56.949 22.84,0 37.58,22.847 37.58,56.949 0,28.32 -10.85,56.922 -37.58,56.922 -28.29,0 -38.74,-28.992 -38.74,-56.922 z m 137.14,1.941 c 0,-69.32 -49.22,-101.1012 -99.94,-101.1012 -55.4,0 -98.04,36.4102 -98.04,97.6012 0,61.231 40.32,100.387 101.12,100.387 58.11,0 96.86,-39.957 96.86,-96.887" /><path
         id="path26"
         style="fill:#2d7bc8;fill-opacity:1;fill-rule:nonzero;stroke:none"
         d="m 1563.21,214.621 c 0,23.617 -0.76,43.77 -1.52,60.41 h 51.11 l 2.73,-25.91 h 1.14 c 7.78,12.027 27.14,30.207 58.51,30.207 38.77,0 67.82,-25.598 67.82,-81.367 V 85.6211 h -58.91 V 190.578 c 0,24.422 -8.52,41.102 -29.82,41.102 -16.28,0 -25.96,-11.27 -29.82,-22.11 -1.57,-3.851 -2.34,-9.34 -2.34,-14.73 V 85.6211 h -58.9 V 214.621" /><path
         id="path28"
         style="fill:#2d7bc8;fill-opacity:1;fill-rule:nonzero;stroke:none"
         d="m 1904.93,201.828 c 0,14.301 -6.18,38.344 -33.31,38.344 -24.81,0 -34.89,-22.481 -36.41,-38.344 z m -69.35,-40.289 c 1.94,-24.379 25.96,-36.059 53.48,-36.059 20.15,0 36.4,2.758 52.29,7.739 l 7.78,-39.8987 c -19.42,-7.6992 -43.05,-11.9805 -68.6,-11.9805 -64.32,0 -101.12,37.5822 -101.12,96.8592 0,47.992 29.84,101.129 95.7,101.129 61.21,0 84.45,-47.648 84.45,-94.527 0,-10.102 -1.14,-19.039 -1.94,-23.262 h -122.04" /><path
         id="path30"
         style="fill:#2d7bc8;fill-opacity:1;fill-rule:nonzero;stroke:none"
         d="m 2036.67,275.031 28.28,-93 c 3.1,-11.211 6.96,-25.16 9.27,-35.242 h 1.16 c 2.73,10.082 5.83,24.383 8.55,35.242 l 23.24,93 h 63.16 L 2126.14,150.289 C 2099.04,75.1289 2080.82,44.9219 2059.54,25.9492 2038.97,8.12109 2017.29,1.92969 2002.57,0 l -12.4,49.9414 c 7.37,1.1875 16.65,4.6289 25.57,10.0586 8.92,4.6797 18.58,13.9609 24.41,23.6914 1.94,2.668 3.1,5.7188 3.1,8.4883 0,1.8984 -0.4,5 -2.73,9.6483 l -69.33,173.203 h 65.48" /><path
         id="path32"
         style="fill:#2d7bc8;fill-opacity:1;fill-rule:nonzero;stroke:none"
         d="m 2224.82,81.3398 c -19.8,0 -34.09,15.0821 -34.09,35.6722 0,20.859 14.29,35.968 34.85,35.968 20.56,0 34.49,-14.679 34.49,-35.968 0,-20.5901 -13.93,-35.6722 -34.88,-35.6722 h -0.37" /><path
         id="path34"
         style="fill:#2d7bc8;fill-opacity:1;fill-rule:nonzero;stroke:none"
         d="m 2391.53,346.75 h 59.29 V 135.172 h 103.84 V 85.6211 H 2391.53 V 346.75" /><path
         id="path36"
         style="fill:#2d7bc8;fill-opacity:1;fill-rule:nonzero;stroke:none"
         d="M 2595.3,85.6211 V 275.031 h 58.9 V 85.6211 Z m 60.84,242.1089 c 0,-16.308 -12.39,-29.492 -31.76,-29.492 -18.61,0 -30.98,13.184 -30.59,29.492 -0.39,17.051 11.98,29.782 30.97,29.782 18.99,0 31,-12.731 31.38,-29.782" /><path
         id="path38"
         style="fill:#2d7bc8;fill-opacity:1;fill-rule:nonzero;stroke:none"
         d="m 2753.01,275.031 25.56,-87.929 c 4.6,-15.93 8.15,-31.012 10.84,-46.09 h 1.15 c 3.08,15.508 6.22,29.808 10.5,46.09 l 24.42,87.929 h 62 L 2816.95,85.6211 H 2758 l -68.92,189.4099 h 63.93" /><path
         id="path40"
         style="fill:#2d7bc8;fill-opacity:1;fill-rule:nonzero;stroke:none"
         d="m 3023.48,201.828 c 0,14.301 -6.19,38.344 -33.37,38.344 -24.83,0 -34.87,-22.481 -36.37,-38.344 z m -69.37,-40.289 c 1.93,-24.379 25.96,-36.059 53.43,-36.059 20.17,0 36.44,2.758 52.32,7.739 l 7.74,-39.8987 c -19.38,-7.6992 -43.01,-11.9805 -68.54,-11.9805 -64.32,0 -101.16,37.5822 -101.16,96.8592 0,47.992 29.86,101.129 95.7,101.129 61.22,0 84.49,-47.648 84.49,-94.527 0,-10.102 -1.18,-19.039 -2.02,-23.262 h -121.96" /><path
         id="path42"
         style="fill:#2d7bc8;fill-opacity:1;fill-rule:nonzero;stroke:none"
         d="m 3250.45,166.191 c 0,-3.871 0.41,-7.41 1.17,-10.511 3.85,-15.821 17.42,-27.828 34.51,-27.828 25.19,0 40.68,19.347 40.68,53.429 0,29.481 -13.19,52.68 -40.68,52.68 -15.92,0 -30.66,-11.973 -34.51,-29.063 -0.76,-3.476 -1.17,-6.937 -1.17,-10.878 z M 3191.6,360.66 h 58.85 V 252.551 h 0.8 c 11.25,16.308 31.02,26.777 57.37,26.777 45.28,0 78.65,-37.637 78.2,-95.738 0,-68.16 -43.35,-102.2502 -86.73,-102.2502 -22.06,0 -43.43,8.0704 -56.98,30.5902 h -0.79 l -2.34,-26.3089 h -49.94 c 0.74,12.3398 1.56,35.2189 1.56,56.5199 V 360.66" /><path
         id="path44"
         style="fill:#2d7bc8;fill-opacity:1;fill-rule:nonzero;stroke:none"
         d="m 3539.07,201.828 c 0,14.301 -6.23,38.344 -33.24,38.344 -24.79,0 -34.89,-22.481 -36.45,-38.344 z m -69.28,-40.289 c 1.93,-24.379 25.94,-36.059 53.42,-36.059 20.16,0 36.43,2.758 52.31,7.739 l 7.76,-39.8987 c -19.34,-7.6992 -43.04,-11.9805 -68.62,-11.9805 -64.29,0 -101.07,37.5822 -101.07,96.8592 0,47.992 29.83,101.129 95.72,101.129 61.21,0 84.42,-47.648 84.42,-94.527 0,-10.102 -1.15,-19.039 -1.91,-23.262 h -122.03" /><path
         id="path46"
         style="fill:#2d7bc8;fill-opacity:1;fill-rule:nonzero;stroke:none"
         d="m 3702.57,326.578 v -51.547 h 42.3 V 231.68 h -42.3 v -68.602 c 0,-22.867 5.45,-33.316 23.26,-33.316 8.13,0 11.68,0.386 17.48,1.558 l 0.37,-44.5895 c -7.75,-3.0391 -21.72,-5.3907 -38.42,-5.3907 -18.96,0 -34.81,6.9415 -44.11,16.6211 -10.86,11.2501 -16.29,29.4801 -16.29,56.1801 v 77.539 h -25.17 v 43.351 h 25.17 v 35.668 l 57.71,15.879" /><path
         id="path48"
         style="fill:#2d7bc8;fill-opacity:1;fill-rule:nonzero;stroke:none"
         d="m 3852.54,326.578 v -51.547 h 42.16 V 231.68 h -42.16 v -68.602 c 0,-22.867 5.43,-33.316 23.19,-33.316 8.15,0 11.64,0.386 17.48,1.558 l 0.35,-44.5895 c -7.73,-3.0391 -21.65,-5.3907 -38.35,-5.3907 -18.94,0 -34.86,6.9415 -44.16,16.6211 -10.84,11.2501 -16.26,29.4801 -16.26,56.1801 v 77.539 h -25.21 v 43.351 h 25.21 v 35.668 l 57.75,15.879" /><path
         id="path50"
         style="fill:#2d7bc8;fill-opacity:1;fill-rule:nonzero;stroke:none"
         d="m 4051.29,201.828 c 0,14.301 -6.21,38.344 -33.3,38.344 -24.85,0 -34.9,-22.481 -36.49,-38.344 z m -69.4,-40.289 c 1.94,-24.379 25.98,-36.059 53.56,-36.059 20.08,0 36.34,2.758 52.22,7.739 l 7.71,-39.8987 c -19.32,-7.6992 -42.9,-11.9805 -68.5,-11.9805 -64.31,0 -101.11,37.5822 -101.11,96.8592 0,47.992 29.85,101.129 95.71,101.129 61.15,0 84.45,-47.648 84.45,-94.527 0,-10.102 -1.17,-19.039 -1.99,-23.262 h -122.05" /><path
         id="path52"
         style="fill:#2d7bc8;fill-opacity:1;fill-rule:nonzero;stroke:none"
         d="m 4148.86,212.691 c 0,27.887 -0.73,46.059 -1.49,62.34 h 50.77 l 1.94,-34.859 h 1.56 c 9.67,27.558 32.89,39.156 51.07,39.156 5.42,0 8.15,0 12.4,-0.777 V 222.73 c -4.25,1.211 -9.29,1.93 -15.89,1.93 -21.68,0 -36.37,-11.621 -40.24,-29.82 -0.76,-3.91 -1.15,-8.539 -1.15,-13.18 V 85.6211 h -58.97 V 212.691" /><path
         id="path54"
         style="fill:#2d7bc8;fill-opacity:1;fill-rule:nonzero;stroke:none"
         d="m 4325.73,81.3398 c -19.76,0 -34.02,15.0821 -34.02,35.6722 0,20.859 14.26,35.968 34.8,35.968 20.53,0 34.48,-14.679 34.48,-35.968 0,-20.5901 -13.95,-35.6722 -34.87,-35.6722 h -0.39" /><path
         id="path56"
         style="fill:#fab41d;fill-opacity:1;fill-rule:nonzero;stroke:none"
         d="m 5158.15,1169.29 c 32.7,0 59.62,16.98 63.26,38.97 l 32.32,365.17 c 0,36.1 -42.28,65.75 -95.48,65.75 -53.1,0 -95.32,-29.65 -95.32,-65.75 l 32.25,-365.17 c 3.56,-21.99 30.51,-38.97 63.09,-38.97 h -0.12" /><path
         id="path58"
         style="fill:#fab41d;fill-opacity:1;fill-rule:nonzero;stroke:none"
         d="m 4960.77,1055.2 c 16.41,28.29 15.14,60.11 -2.13,74.23 l -300.16,210.51 c -31.18,18.06 -78,-3.68 -104.56,-49.73 -26.64,-45.99 -21.92,-97.39 9.25,-115.42 l 332.32,-154.75 c 20.81,-7.74 49.09,7.09 65.4,35.36 l -0.12,-0.2" /><path
         id="path60"
         style="fill:#fab41d;fill-opacity:1;fill-rule:nonzero;stroke:none"
         d="m 5355.67,1055.4 c 16.37,-28.27 44.56,-43.1 65.37,-35.36 l 332.37,154.75 c 31.3,18.03 35.79,69.43 9.33,115.42 -26.68,46.05 -73.55,67.79 -104.67,49.73 L 5357.9,1129.43 c -17.17,-14.12 -18.44,-45.94 -2.11,-74.23 l -0.12,0.2" /><path
         id="path62"
         style="fill:#fab41d;fill-opacity:1;fill-rule:nonzero;stroke:none"
         d="m 5158.15,713.16 c 32.7,0 59.62,-16.894 63.26,-38.867 l 32.32,-365.152 c 0,-36.161 -42.28,-65.75 -95.48,-65.75 -53.1,0 -95.32,29.589 -95.32,65.75 l 32.25,365.152 c 3.56,21.973 30.51,38.867 63.09,38.867 h -0.12" /><path
         id="path64"
         style="fill:#fab41d;fill-opacity:1;fill-rule:nonzero;stroke:none"
         d="m 5355.67,827.203 c 16.37,28.328 44.56,43.047 65.37,35.215 l 332.37,-154.57 c 31.3,-18.106 35.79,-69.528 9.33,-115.567 -26.68,-45.902 -73.55,-67.711 -104.67,-49.711 L 5357.9,752.926 c -17.17,14.277 -18.44,46.074 -2.11,74.336 l -0.12,-0.059" /><path
         id="path66"
         style="fill:#fab41d;fill-opacity:1;fill-rule:nonzero;stroke:none"
         d="m 4960.77,827.262 c 16.41,-28.262 15.14,-60.059 -2.13,-74.336 L 4658.48,542.57 c -31.18,-18 -78,3.809 -104.56,49.711 -26.64,46.039 -21.92,97.461 9.25,115.567 l 332.32,154.57 c 20.81,7.832 49.09,-6.887 65.42,-35.215 l -0.14,0.059" /><path
         id="path68"
         style="fill:#2d7bc8;fill-opacity:1;fill-rule:nonzero;stroke:none"
         d="m 3264.86,753.637 c 0,-11.231 -0.99,-22.813 -4.08,-32.938 -12.73,-42.16 -56.4,-77.793 -111,-77.793 -45.53,0 -81.69,25.84 -81.69,80.489 0,83.582 92.02,106.699 196.77,106.152 z m 164.34,145.644 c 0,137.909 -58.9,259.209 -257.94,259.209 -102.2,0 -183.32,-28.71 -227.59,-54.27 l 32.41,-110.825 c 40.44,25.515 104.94,46.645 165.94,46.645 100.97,0.26 117.53,-57.145 117.53,-93.95 v -8.711 c -220.14,0.332 -359.23,-75.852 -359.23,-231.152 0,-94.817 70.84,-183.676 194.01,-183.676 75.72,0 139.11,30.23 177.02,78.66 h 3.75 c 0,0 25.14,-105.172 163.73,-64.949 -7.29,43.769 -9.63,90.429 -9.63,146.633 v 216.386" /><path
         id="path70"
         style="fill:#2d7bc8;fill-opacity:1;fill-rule:nonzero;stroke:none"
         d="m 0,1346.27 c 0,0 143.809,-589.332 166.758,-684.985 26.789,-111.656 75.062,-152.734 214.226,-125.023 l 89.813,365.402 c 22.758,90.754 38.031,155.446 52.664,247.766 h 2.57 c 10.282,-93.23 24.926,-157.297 43.657,-248.098 0,0 36.55,-165.859 55.269,-252.977 18.773,-87.093 71,-141.976 207.316,-112.093 L 1046.26,1346.27 H 873.5 L 800.438,996.07 C 780.797,894.137 762.992,814.477 749.246,721.227 h -2.449 c -12.496,92.351 -28.375,168.828 -48.352,268.132 L 622.379,1346.27 H 442.387 L 361.023,998.355 C 337.98,892.633 316.41,807.27 302.699,717.184 h -2.465 c -14.046,84.832 -32.757,192.117 -53.004,294.456 0,0 -48.339,248.85 -65.296,334.63 H 0" /><path
         id="path72"
         style="fill:#2d7bc8;fill-opacity:1;fill-rule:nonzero;stroke:none"
         d="m 1372.91,753.637 c 0,-11.231 -0.97,-22.813 -4.08,-32.938 -12.73,-42.16 -56.4,-77.793 -111,-77.793 -45.52,0 -81.68,25.84 -81.68,80.489 0,83.582 92.01,106.699 196.76,106.152 z m 164.31,145.644 c 0,137.909 -58.89,259.209 -257.9,259.209 -102.22,0 -183.36,-28.71 -227.59,-54.27 l 32.37,-110.825 c 40.48,25.515 104.92,46.645 165.95,46.645 101.04,0.26 117.57,-57.145 117.57,-93.95 v -8.711 c -220.17,0.332 -359.24,-75.852 -359.24,-231.152 0,-94.817 70.8,-183.676 193.9,-183.676 75.78,0 139.15,30.23 177.13,78.66 h 3.72 c 0,0 25.16,-105.172 163.73,-64.949 -7.28,43.769 -9.64,90.429 -9.64,146.633 v 216.386" /><path
         id="path74"
         style="fill:#2d7bc8;fill-opacity:1;fill-rule:nonzero;stroke:none"
         d="M 1811.42,708.238 V 1346.27 H 1646.94 V 536.262 h 164.48 v 171.976" /><path
         id="path76"
         style="fill:#2d7bc8;fill-opacity:1;fill-rule:nonzero;stroke:none"
         d="m 3963.49,1346.27 c 0,-77.72 0,-597.555 0,-597.555 0,-82.371 15.51,-140.094 48.68,-175.356 28.98,-30.839 76.71,-50.808 133.91,-50.808 48.63,0 96.48,9.23 119.03,17.629 l -2.12,128.527 c -16.78,-4.121 -36.08,-7.422 -62.48,-7.422 -56.03,0 -74.82,35.887 -74.82,109.852 v 228.605 h 143.25 v 154.978 h -143.25 v 191.55 h -162.2" /><path
         id="path78"
         style="fill:#2d7bc8;fill-opacity:1;fill-rule:nonzero;stroke:none"
         d="M 3538.88,1144.76 V 536.262 h 169.68 v 311.574 c 0,16.816 1.02,31.477 3.68,44.914 12.55,65.273 62.48,106.992 134.13,106.992 19.67,0 33.74,-2.129 48.97,-4.336 v 159.314 c -12.77,2.58 -21.5,3.77 -37.39,3.77 -63.32,0 -135.36,-40.88 -165.6,-128.51 h -4.61 v 114.78 h -148.86" /><path
         id="path80"
         style="fill:#2d7bc8;fill-opacity:1;fill-rule:nonzero;stroke:none"
         d="M 1926.62,1144.76 V 536.262 h 165.35 v 356.859 c 0,16.727 1.92,34.414 7.76,49.805 13.7,35.926 47.12,77.954 100.49,77.954 66.72,0 97.94,-56.411 97.94,-137.817 V 536.262 h 165.18 v 361.164 c 0,15.976 2.19,35.207 6.89,49.328 13.58,40.867 49.61,74.126 99.22,74.126 67.64,0 100.11,-55.415 100.11,-151.208 0,0 0,-257.051 0,-333.41 h 165.29 v 358.383 c 0,189.005 -95.96,263.845 -204.3,263.845 -47.98,0 -85.85,-12.03 -120.09,-33.04 -28.78,-17.67 -54.55,-42.76 -77.07,-75.8 h -2.44 c -26.14,65.58 -87.61,108.84 -167.7,108.84 -102.93,0 -149.17,-52.16 -177.22,-96.42 h -2.45 v 82.69 h -156.96" /><path
         id="path82"
         style="fill:#fab41d;fill-opacity:1;fill-rule:nonzero;stroke:none"
         d="m 5819.28,546.18 h 3.1 c 3.63,0 6.56,1.211 6.56,4.14 0,2.59 -1.9,4.301 -6.04,4.301 -1.72,0 -2.93,-0.16 -3.62,-0.34 z m -0.17,-15.86 h -6.55 v 28.102 c 2.59,0.519 6.2,1.039 10.86,1.039 5.35,0 7.76,-0.871 9.83,-2.25 1.54,-1.199 2.76,-3.449 2.76,-6.031 0,-3.27 -2.42,-5.692 -5.86,-6.719 v -0.352 c 2.75,-0.859 4.3,-3.097 5.16,-6.898 0.87,-4.301 1.39,-6.031 2.07,-6.891 h -7.07 c -0.86,1.032 -1.37,3.442 -2.23,6.719 -0.52,3.102 -2.25,4.481 -5.86,4.481 h -3.11 z m 4.31,37.239 c -12.41,0 -21.73,-10.168 -21.73,-22.579 0,-12.589 9.32,-22.589 22.07,-22.589 12.42,-0.18 21.55,10 21.55,22.589 0,12.411 -9.13,22.579 -21.72,22.579 z m 0.34,5.691 c 16.21,0 28.8,-12.59 28.8,-28.27 0,-16.039 -12.59,-28.46 -28.97,-28.46 -16.21,0 -29.14,12.421 -29.14,28.46 0,15.68 12.93,28.27 29.14,28.27 h 0.17" /></g></g></svg>